<?xml version="1.0" encoding="UTF-8" standalone="no"?>
<!-- Generator: Adobe Illustrator 16.0.0, SVG Export Plug-In . SVG Version: 6.00 Build 0)  -->

<svg
   xmlns:dc="http://purl.org/dc/elements/1.1/"
   xmlns:cc="http://creativecommons.org/ns#"
   xmlns:rdf="http://www.w3.org/1999/02/22-rdf-syntax-ns#"
   xmlns:svg="http://www.w3.org/2000/svg"
   xmlns="http://www.w3.org/2000/svg"
   xmlns:sodipodi="http://sodipodi.sourceforge.net/DTD/sodipodi-0.dtd"
   xmlns:inkscape="http://www.inkscape.org/namespaces/inkscape"
   version="1.1"
   id="Layer_1"
   x="0px"
   y="0px"
   width="48"
   height="48"
   viewBox="0 0 48 48"
   enable-background="new 0 0 412 430"
   xml:space="preserve"
   inkscape:version="0.48.4 r9939"
   sodipodi:docname="draw.io-logo.svg"><metadata
     id="metadata35"><rdf:RDF><cc:Work
         rdf:about=""><dc:format>image/svg+xml</dc:format><dc:type
           rdf:resource="http://purl.org/dc/dcmitype/StillImage" /></cc:Work></rdf:RDF></metadata><defs
     id="defs33" /><sodipodi:namedview
     pagecolor="#ffffff"
     bordercolor="#666666"
     borderopacity="1"
     objecttolerance="10"
     gridtolerance="10"
     guidetolerance="10"
     inkscape:pageopacity="0"
     inkscape:pageshadow="2"
     inkscape:window-width="1233"
     inkscape:window-height="1028"
     id="namedview31"
     showgrid="false"
     fit-margin-top="0"
     fit-margin-left="0"
     fit-margin-right="0"
     fit-margin-bottom="0"
     inkscape:zoom="4.3906977"
     inkscape:cx="68.728774"
     inkscape:cy="27.85545"
     inkscape:window-x="872"
     inkscape:window-y="24"
     inkscape:window-maximized="0"
     inkscape:current-layer="Layer_1" /><path
     style="fill:#ff8e14"
     d="M 7.328917,2 C 4.3874055,2 2,4.6033524 2,7.8109304 L 2,40.18907 C 2,43.396648 4.3874055,46 7.328917,46 l 33.342166,0 C 43.612595,46 46,43.396648 46,40.18907 L 46,7.8109304 C 46,4.6033524 43.612393,2 40.671083,2 L 7.328917,2 z m 11.107719,8.402009 11.773042,0 c 0.696903,0 1.191243,0.587644 1.191243,1.347364 l 0,8.249999 c 0,0.759718 -0.49434,1.457914 -1.191243,1.457914 l -1.72984,0 2.914747,5.527639 6.8053,0 c 0.696902,0 1.311433,0.511858 1.311635,1.271356 l 0,7.331031 c 0,0.760382 -0.614733,1.347361 -1.311635,1.347361 l -11.773041,0 c -0.696093,0 -1.311638,-0.587202 -1.311638,-1.347361 l 0,-7.331031 c 0,-0.759498 0.615545,-1.271356 1.311638,-1.271356 l 2.350806,0 -2.914747,-5.527639 -3.028802,0 -2.914746,5.527639 2.300115,0 c 0.696903,0 1.273618,0.511638 1.273618,1.271356 l 0,7.331031 c 0,0.760382 -0.576512,1.347361 -1.273618,1.347361 l -11.773041,0 c -0.6969037,0 -1.3496547,-0.587202 -1.3496547,-1.347361 l 0,-7.331031 c 0,-0.759498 0.652751,-1.271356 1.3496547,-1.271356 l 6.85599,0 2.908411,-5.527639 -1.774194,0 c -0.696903,0 -1.229263,-0.698196 -1.229263,-1.457914 l 0,-8.249999 c 0,-0.75972 0.532157,-1.347364 1.229263,-1.347364 z"
     id="path3"
     inkscape:connector-curvature="0" /></svg>