<?xml version="1.0" encoding="UTF-8" standalone="no"?>
<svg
   xmlns:dc="http://purl.org/dc/elements/1.1/"
   xmlns:cc="http://creativecommons.org/ns#"
   xmlns:rdf="http://www.w3.org/1999/02/22-rdf-syntax-ns#"
   xmlns:svg="http://www.w3.org/2000/svg"
   xmlns="http://www.w3.org/2000/svg"
   xmlns:sodipodi="http://sodipodi.sourceforge.net/DTD/sodipodi-0.dtd"
   xmlns:inkscape="http://www.inkscape.org/namespaces/inkscape"
   viewBox="0 0 48 48.000001"
   height="48"
   width="48"
   xml:space="preserve"
   version="1.1"
   id="svg3520"
   inkscape:version="0.48.4 r9939"
   sodipodi:docname="Dropbox_logo_(2013).svg"><metadata
     id="metadata3912"><rdf:RDF><cc:Work
         rdf:about=""><dc:format>image/svg+xml</dc:format><dc:type
           rdf:resource="http://purl.org/dc/dcmitype/StillImage" /></cc:Work></rdf:RDF></metadata><sodipodi:namedview
     pagecolor="#ffffff"
     bordercolor="#666666"
     borderopacity="1"
     objecttolerance="10"
     gridtolerance="10"
     guidetolerance="10"
     inkscape:pageopacity="0"
     inkscape:pageshadow="2"
     inkscape:window-width="1920"
     inkscape:window-height="1056"
     id="namedview3910"
     showgrid="false"
     inkscape:zoom="0.70385976"
     inkscape:cx="-117.61964"
     inkscape:cy="58.553249"
     inkscape:window-x="0"
     inkscape:window-y="24"
     inkscape:window-maximized="1"
     inkscape:current-layer="svg3520" /><defs
     id="defs3524"><clipPath
       id="clipPath3554"
       clipPathUnits="userSpaceOnUse"><path
         id="path3556"
         d="M 0,170 446,170 446,0 0,0 0,170 z"
         inkscape:connector-curvature="0" /></clipPath></defs><g
     id="g3940"
     transform="matrix(0.3494674,0,0,0.3494674,1.9999997,3.5375485)"><g
       transform="matrix(1.25,0,0,-1.25,37.0375,3.75e-4)"
       id="g3530"><path
         id="path3532"
         style="fill:#007ee5;fill-opacity:1;fill-rule:nonzero;stroke:none"
         d="M 0,0 -29.63,-19.346 -9.143,-35.752 20.732,-17.305 0,0 z"
         inkscape:connector-curvature="0" /></g><g
       transform="matrix(1.25,0,0,-1.25,1.25e-4,65.19875)"
       id="g3534"><path
         id="path3536"
         style="fill:#007ee5;fill-opacity:1;fill-rule:nonzero;stroke:none"
         d="M 0,0 29.63,-19.346 50.362,-2.04 20.487,16.407 0,0 z"
         inkscape:connector-curvature="0" /></g><g
       transform="matrix(1.25,0,0,-1.25,62.953,67.74875)"
       id="g3538"><path
         id="path3540"
         style="fill:#007ee5;fill-opacity:1;fill-rule:nonzero;stroke:none"
         d="M 0,0 20.733,-17.306 50.362,2.04 29.875,18.447 0,0 z"
         inkscape:connector-curvature="0" /></g><g
       transform="matrix(1.25,0,0,-1.25,125.90588,24.1825)"
       id="g3542"><path
         id="path3544"
         style="fill:#007ee5;fill-opacity:1;fill-rule:nonzero;stroke:none"
         d="M 0,0 -29.629,19.346 -50.362,2.041 -20.487,-16.406 0,0 z"
         inkscape:connector-curvature="0" /></g><g
       transform="matrix(1.25,0,0,-1.25,63.02875,72.40275)"
       id="g3546"><path
         id="path3548"
         style="fill:#007ee5;fill-opacity:1;fill-rule:nonzero;stroke:none"
         d="m 0,0 -20.793,-17.254 -8.897,5.809 0,-6.513 29.69,-17.805 29.691,17.805 0,6.513 -8.896,-5.809 L 0,0 z"
         inkscape:connector-curvature="0" /></g></g></svg>