<?xml version="1.0" encoding="UTF-8" standalone="no"?>
<!-- Generator: Adobe Illustrator 16.0.0, SVG Export Plug-In . SVG Version: 6.00 Build 0)  -->

<svg
   xmlns:dc="http://purl.org/dc/elements/1.1/"
   xmlns:cc="http://creativecommons.org/ns#"
   xmlns:rdf="http://www.w3.org/1999/02/22-rdf-syntax-ns#"
   xmlns:svg="http://www.w3.org/2000/svg"
   xmlns="http://www.w3.org/2000/svg"
   xmlns:sodipodi="http://sodipodi.sourceforge.net/DTD/sodipodi-0.dtd"
   xmlns:inkscape="http://www.inkscape.org/namespaces/inkscape"
   version="1.1"
   id="Layer_1"
   x="0px"
   y="0px"
   width="48"
   height="48"
   viewBox="0 0 47.999999 48.000002"
   enable-background="new 0 0 266.893 266.895"
   xml:space="preserve"
   inkscape:version="0.48.4 r9939"
   sodipodi:docname="facebook.svg"><metadata
     id="metadata3673"><rdf:RDF><cc:Work
         rdf:about=""><dc:format>image/svg+xml</dc:format><dc:type
           rdf:resource="http://purl.org/dc/dcmitype/StillImage" /><dc:title></dc:title></cc:Work></rdf:RDF></metadata><defs
     id="defs3671" /><sodipodi:namedview
     pagecolor="#ffffff"
     bordercolor="#666666"
     borderopacity="1"
     objecttolerance="10"
     gridtolerance="10"
     guidetolerance="10"
     inkscape:pageopacity="0"
     inkscape:pageshadow="2"
     inkscape:window-width="1118"
     inkscape:window-height="658"
     id="namedview3669"
     showgrid="false"
     inkscape:zoom="2.5010166"
     inkscape:cx="37.497763"
     inkscape:cy="79.453635"
     inkscape:window-x="544"
     inkscape:window-y="212"
     inkscape:window-maximized="0"
     inkscape:current-layer="Layer_1" /><path
     id="Blue_1_"
     d="M 43.571708,46.000002 C 44.912621,46.000002 46,44.912632 46,43.571388 V 4.4284435 C 46,3.087029 44.912792,2.0000001 43.571708,2.0000001 H 4.4284608 c -1.3414249,0 -2.4284623,1.0870289 -2.4284623,2.4284434 V 43.571388 c 0,1.341073 1.0868666,2.428614 2.4284623,2.428614 H 43.571708 z"
     inkscape:connector-curvature="0"
     style="fill:#3c5a99" /><path
     id="f"
     d="M 32.359362,46.000002 V 28.960777 h 5.719282 l 0.856381,-6.640489 h -6.575663 v -4.239533 c 0,-1.922574 0.533873,-3.232746 3.29082,-3.232746 l 3.516354,-0.0015 V 8.9071666 c -0.60814,-0.080925 -2.695484,-0.2617269 -5.123946,-0.2617269 -5.069825,0 -8.540764,3.0946263 -8.540764,8.7776693 v 4.897179 h -5.733965 v 6.640489 h 5.733965 v 17.039225 h 6.857537 z"
     inkscape:connector-curvature="0"
     style="fill:#ffffff" /></svg>