<?xml version="1.0" encoding="UTF-8" standalone="no"?>
<svg
   xmlns:dc="http://purl.org/dc/elements/1.1/"
   xmlns:cc="http://creativecommons.org/ns#"
   xmlns:rdf="http://www.w3.org/1999/02/22-rdf-syntax-ns#"
   xmlns:svg="http://www.w3.org/2000/svg"
   xmlns="http://www.w3.org/2000/svg"
   xmlns:sodipodi="http://sodipodi.sourceforge.net/DTD/sodipodi-0.dtd"
   xmlns:inkscape="http://www.inkscape.org/namespaces/inkscape"
   version="1.1"
   viewBox="0 0 48 48"
   id="svg2"
   inkscape:version="0.48.4 r9939"
   width="100%"
   height="100%"
   sodipodi:docname="gmail.svg">
  <metadata
     id="metadata22">
    <rdf:RDF>
      <cc:Work
         rdf:about="">
        <dc:format>image/svg+xml</dc:format>
        <dc:type
           rdf:resource="http://purl.org/dc/dcmitype/StillImage" />
      </cc:Work>
    </rdf:RDF>
  </metadata>
  <defs
     id="defs20" />
  <sodipodi:namedview
     pagecolor="#ffffff"
     bordercolor="#666666"
     borderopacity="1"
     objecttolerance="10"
     gridtolerance="10"
     guidetolerance="10"
     inkscape:pageopacity="0"
     inkscape:pageshadow="2"
     inkscape:window-width="1236"
     inkscape:window-height="825"
     id="namedview18"
     showgrid="false"
     inkscape:zoom="14.354167"
     inkscape:cx="24"
     inkscape:cy="24"
     inkscape:window-x="10"
     inkscape:window-y="34"
     inkscape:window-maximized="0"
     inkscape:current-layer="svg2" />
  <g
     id="g4"
     transform="matrix(9.7658417e-4,0,0,9.7658417e-4,1.755854,7.8389967)">
    <path
       d="m 41608,250 c 2030,0 3691,1661 3691,3691 l 0,1070 L 40171,8674 22713,20700 5255,8552 l 0,24295 -1314,0 C 1911,32847 250,31186 250,29156 L 250,3942 C 250,1912 1911,251 3941,251 L 22713,14169 41607,251 z"
       id="path6"
       inkscape:connector-curvature="0"
       style="fill:#e75a4d" />
    <polygon
       points="5255,8552 5255,32847 40172,32847 40172,8674 22713,20700 "
       id="polygon8"
       style="fill:#e7e4d7" />
    <polygon
       points="22634,20644 5255,32580 5255,32847 22713,20700 "
       id="polygon10"
       style="fill:#b8b7ae" />
    <polygon
       points="40182,32847 22713,20700 40172,8674 "
       id="polygon12"
       style="fill:#b7b6ad" />
    <path
       d="m 45299,5011 6,24148 c -88,2684 -1251,3642 -5123,3687 l -10,-24173 5128,-3663 z"
       id="path14"
       inkscape:connector-curvature="0"
       style="fill:#b2392f" />
    <polygon
       points="22713,14168 41608,250 3941,250 "
       id="polygon16"
       style="fill:#f7f5ed" />
  </g>
</svg>
