<?xml version="1.0" encoding="UTF-8" standalone="no"?>
<!-- Created with Inkscape (http://www.inkscape.org/) -->

<svg
   xmlns:dc="http://purl.org/dc/elements/1.1/"
   xmlns:cc="http://creativecommons.org/ns#"
   xmlns:rdf="http://www.w3.org/1999/02/22-rdf-syntax-ns#"
   xmlns:svg="http://www.w3.org/2000/svg"
   xmlns="http://www.w3.org/2000/svg"
   xmlns:sodipodi="http://sodipodi.sourceforge.net/DTD/sodipodi-0.dtd"
   xmlns:inkscape="http://www.inkscape.org/namespaces/inkscape"
   version="1.1"
   width="48"
   height="48"
   id="svg2"
   inkscape:version="0.48.4 r9939"
   sodipodi:docname="Google_favicon.svg">
  <sodipodi:namedview
     pagecolor="#ffffff"
     bordercolor="#666666"
     borderopacity="1"
     objecttolerance="10"
     gridtolerance="10"
     guidetolerance="10"
     inkscape:pageopacity="0"
     inkscape:pageshadow="2"
     inkscape:window-width="1284"
     inkscape:window-height="796"
     id="namedview12"
     showgrid="false"
     inkscape:zoom="5.9653179"
     inkscape:cx="15.449933"
     inkscape:cy="9.7643619"
     inkscape:window-x="254"
     inkscape:window-y="115"
     inkscape:window-maximized="0"
     inkscape:current-layer="svg2" />
  <defs
     id="defs4" />
  <metadata
     id="metadata7">
    <rdf:RDF>
      <cc:Work
         rdf:about="">
        <dc:format>image/svg+xml</dc:format>
        <dc:type
           rdf:resource="http://purl.org/dc/dcmitype/StillImage" />
        <dc:title></dc:title>
      </cc:Work>
    </rdf:RDF>
  </metadata>
  <g
     id="g2986"
     transform="matrix(0.0652819,0,0,0.06358382,1.9999977,42.947979)">
    <path
       inkscape:connector-curvature="0"
       style="fill:#ffffff;fill-opacity:1"
       id="path3028"
       d="m 3e-5,-298 0,-346 337,0 337,0 0,346 0,345.99997 -337,0 -337,0 L 3e-5,-298 z" />
    <path
       inkscape:connector-curvature="0"
       style="fill:#ffdd04;fill-opacity:1"
       id="path3026"
       d="m 312.00003,43.40367 c 49.10761,-26.3618 89.25364,-65.0589 107.47034,-103.59141 9.8845,-20.90798 13.00326,-35.10763 12.91732,-58.81226 -0.0568,-15.66199 -0.34314,-18.55029 -2.72649,-27.5 -4.83713,-18.16393 -12.95169,-32.56917 -26.0676,-46.27605 -17.10684,-17.87764 -37.81025,-29.4155 -64.96745,-36.20589 -22.85956,-5.7158 -59.47785,-8.57059 -141.12612,-11.00227 -85.77656,-2.55463 -101.42691,-3.56701 -117.35913,-7.59171 -16.89591,-4.26814 -27.10191,-12.06997 -30.18244,-23.07254 -2.4653,-8.80521 1.95653,-23.70857 11.23787,-37.87616 C 67.41197,-318.01256 87.7678,-339 90.75456,-339 c 1.11667,0 7.59122,1.31479 14.38789,2.92175 43.24868,10.22545 88.13427,10.0724 129.06365,-0.4401 34.88103,-8.95901 66.01808,-27.39089 89.36443,-52.90015 27.50079,-30.04859 41.55464,-63.803 43.12678,-103.5815 1.48701,-37.62448 -7.05051,-72.33872 -24.21969,-98.47929 -2.46268,-3.74949 -4.47759,-7.20053 -4.47759,-7.66898 0,-0.46845 16.0875,-0.87702 35.75,-0.90793 19.6625,-0.0309 40.37496,-0.40235 46.02769,-0.82542 16.09505,-1.20461 18.27378,-3.7417 18.95298,-22.07035 0.31196,-8.4182 0.0264,-12.83541 -1.0535,-16.29803 l -1.48143,-4.75 118.90213,0 118.90213,0 0,346 0,345.99997 -185.25,-0.017 -185.25,-0.017 8.5,-4.5629 z m -155,-33.4445 C 102.8787,4.99347 64.07497,-6.56203 35.22803,-26.30353 22.42695,-35.06403 13.83511,-45.87973 10.46341,-57.47798 8.27373,-65.0102 8.93958,-79.15112 11.99475,-90 c 5.32843,-18.92116 23.21511,-49.11919 41.08961,-69.3715 l 4.29955,-4.87151 6.05806,0.54309 c 3.33193,0.2987 15.50806,1.46521 27.05806,2.59223 38.01374,3.70932 83.99748,6.23909 147.5,8.11466 78.05419,2.30536 110.72102,6.58832 131.25286,17.20863 17.8911,9.25435 26.04559,25.80872 23.00139,46.69495 -2.48122,17.02365 -11.29767,33.03123 -26.75425,48.57632 -23.17836,23.3111 -50.69814,37.389 -87.79496,44.9122 -24.80528,5.0304 -34.81292,5.8605 -74.20504,6.1551 -20.35,0.1521 -41.275,-0.1156 -46.5,-0.595 z m -157,-173.93953 0,-22.98035 12.75,8.62824 c 7.0125,4.74553 12.8944,8.99488 13.07088,9.443 C 26.1117,-168.15113 1.37285,-141 0.40932,-141 0.18421,-141 3e-5,-151.34116 3e-5,-163.98036 z m 0.0196,-182.18357 0.0196,-55.33607 3.71331,4.5 c 12.22373,14.81343 27.33073,27.71886 43.92958,37.52766 5.94988,3.51598 11.65669,6.98614 12.6818,7.71148 1.71053,1.21032 0.55078,2.48486 -14.09997,15.49558 -8.78009,7.79724 -22.78131,21.21043 -31.11383,29.80711 L 9e-5,-290.82786 l 0.0196,-55.33607 z m 154.48043,-12.3595 c -29.57285,-6.51889 -52.46684,-25.92177 -69.34269,-58.76859 -9.09551,-17.70334 -15.34864,-38.38296 -19.32552,-63.91112 -2.99884,-19.25003 -3.30015,-67.38601 -0.52139,-83.29686 6.25969,-35.84238 18.0937,-58.20737 40.0294,-75.65126 l 4.8398,-3.84874 49.8204,0 49.8204,0 4.8398,3.842 c 17.59738,13.96943 33.32363,37.83632 42.65704,64.73835 17.61871,50.78305 18.16503,123.52756 1.22218,162.73819 -5.28407,12.22887 -9.37364,18.40763 -18.52701,27.99167 -13.61832,14.25906 -27.9066,22.32796 -46.22025,26.10156 -9.37396,1.93154 -30.66443,1.96665 -39.29216,0.0648 z M 6e-5,-625.5 l 0,-18.5 18.21063,0 18.21063,0 -7.41807,6.75 c -9.08059,8.26279 -18.43282,18.00601 -23.99677,25 C 2.70937,-609.3625 0.64321,-607 0.41499,-607 0.18678,-607 6e-5,-615.325 6e-5,-625.5 z" />
    <path
       inkscape:connector-curvature="0"
       style="fill:#ed1a4b;fill-opacity:1"
       id="path3024"
       d="m 312.00003,43.40367 c 49.10761,-26.3618 89.25364,-65.0589 107.47034,-103.59141 9.8845,-20.90798 13.00326,-35.10763 12.91732,-58.81226 -0.0568,-15.66199 -0.34314,-18.55029 -2.72649,-27.5 -4.83713,-18.16393 -12.95169,-32.56917 -26.0676,-46.27605 -17.10684,-17.87764 -37.81025,-29.4155 -64.96745,-36.20589 -22.85956,-5.7158 -59.47785,-8.57059 -141.12612,-11.00227 -85.77656,-2.55463 -101.42691,-3.56701 -117.35913,-7.59171 -16.89591,-4.26814 -27.10191,-12.06997 -30.18244,-23.07254 -2.4653,-8.80521 1.95653,-23.70857 11.23787,-37.87616 C 67.41197,-318.01256 87.7678,-339 90.75456,-339 c 1.11667,0 7.59122,1.31479 14.38789,2.92175 43.24868,10.22545 88.13427,10.0724 129.06365,-0.4401 34.88103,-8.95901 66.01808,-27.39089 89.36443,-52.90015 27.50079,-30.04859 41.55464,-63.803 43.12678,-103.5815 1.48701,-37.62448 -7.05051,-72.33872 -24.21969,-98.47929 -2.46268,-3.74949 -4.47759,-7.20053 -4.47759,-7.66898 0,-0.46845 16.0875,-0.87702 35.75,-0.90793 19.6625,-0.0309 40.37496,-0.40235 46.02769,-0.82542 16.09505,-1.20461 18.27378,-3.7417 18.95298,-22.07035 0.31196,-8.4182 0.0264,-12.83541 -1.0535,-16.29803 l -1.48143,-4.75 118.90213,0 118.90213,0 0,346 0,345.99997 -185.25,-0.017 -185.25,-0.017 8.5,-4.5629 z m -312,-207.38403 0,-22.98035 12.75,8.62824 c 7.0125,4.74553 12.8944,8.99488 13.07088,9.443 C 26.1117,-168.15113 1.37285,-141 0.40932,-141 0.18421,-141 3e-5,-151.34116 3e-5,-163.98036 z m 0.0196,-182.18357 0.0196,-55.33607 3.71331,4.5 c 12.22373,14.81343 27.33073,27.71886 43.92958,37.52766 5.94988,3.51598 11.65669,6.98614 12.6818,7.71148 1.71053,1.21032 0.55078,2.48486 -14.09997,15.49558 -8.78009,7.79724 -22.78131,21.21043 -31.11383,29.80711 L 9e-5,-290.82786 l 0.0196,-55.33607 z m 154.48043,-12.3595 c -29.57285,-6.51889 -52.46684,-25.92177 -69.34269,-58.76859 -9.09551,-17.70334 -15.34864,-38.38296 -19.32552,-63.91112 -2.99884,-19.25003 -3.30015,-67.38601 -0.52139,-83.29686 6.25969,-35.84238 18.0937,-58.20737 40.0294,-75.65126 l 4.8398,-3.84874 49.8204,0 49.8204,0 4.8398,3.842 c 17.59738,13.96943 33.32363,37.83632 42.65704,64.73835 17.61871,50.78305 18.16503,123.52756 1.22218,162.73819 -5.28407,12.22887 -9.37364,18.40763 -18.52701,27.99167 -13.61832,14.25906 -27.9066,22.32796 -46.22025,26.10156 -9.37396,1.93154 -30.66443,1.96665 -39.29216,0.0648 z M 6e-5,-625.5 l 0,-18.5 18.21063,0 18.21063,0 -7.41807,6.75 c -9.08059,8.26279 -18.43282,18.00601 -23.99677,25 C 2.70937,-609.3625 0.64321,-607 0.41499,-607 0.18678,-607 6e-5,-615.325 6e-5,-625.5 z" />
    <path
       inkscape:connector-curvature="0"
       style="fill:#007dc7;fill-opacity:1"
       id="path3022"
       d="m 312.00003,43.40367 c 49.10761,-26.3618 89.25364,-65.0589 107.47034,-103.59141 9.8845,-20.90798 13.00326,-35.10763 12.91732,-58.81226 -0.0568,-15.66199 -0.34314,-18.55029 -2.72649,-27.5 -4.83713,-18.16393 -12.95169,-32.56917 -26.0676,-46.27605 -17.10684,-17.87764 -37.81025,-29.4155 -64.96745,-36.20589 -22.85956,-5.7158 -59.47785,-8.57059 -141.12612,-11.00227 -85.77656,-2.55463 -101.42691,-3.56701 -117.35913,-7.59171 -16.89591,-4.26814 -27.10191,-12.06997 -30.18244,-23.07254 -2.4653,-8.80521 1.95653,-23.70857 11.23787,-37.87616 C 67.41197,-318.01256 87.7678,-339 90.75456,-339 c 1.11667,0 7.59122,1.31479 14.38789,2.92175 43.24868,10.22545 88.13427,10.0724 129.06365,-0.4401 26.24822,-6.74171 51.88052,-19.61152 71.50967,-35.90452 l 6.30631,-5.23449 12.73897,-2.17877 c 40.94183,-7.00234 60.37367,-8.5983 104.23898,-8.56123 37.98861,0.0321 52.52897,0.97931 84,5.47202 53.78049,7.67755 103.64086,22.89519 146.25,44.63627 l 14.75,7.5261 0,189.38148 0,189.38146 -185.25,-0.017 -185.25,-0.017 8.5,-4.5629 z m -312,-207.38403 0,-22.98035 12.75,8.62824 c 7.0125,4.74553 12.8944,8.99488 13.07088,9.443 C 26.1117,-168.15113 1.37285,-141 0.40932,-141 0.18421,-141 3e-5,-151.34116 3e-5,-163.98036 z m 0.0196,-182.18357 0.0196,-55.33607 3.71331,4.5 c 12.22373,14.81343 27.33073,27.71886 43.92958,37.52766 5.94988,3.51598 11.65669,6.98614 12.6818,7.71148 1.71053,1.21032 0.55078,2.48486 -14.09997,15.49558 -8.78009,7.79724 -22.78131,21.21043 -31.11383,29.80711 L 9e-5,-290.82786 l 0.0196,-55.33607 z m 154.48043,-12.3595 c -29.57285,-6.51889 -52.46684,-25.92177 -69.34269,-58.76859 -9.09551,-17.70334 -15.34864,-38.38296 -19.32552,-63.91112 -2.99884,-19.25003 -3.30015,-67.38601 -0.52139,-83.29686 6.25969,-35.84238 18.0937,-58.20737 40.0294,-75.65126 l 4.8398,-3.84874 49.8204,0 49.8204,0 4.8398,3.842 c 17.59738,13.96943 33.32363,37.83632 42.65704,64.73835 17.61871,50.78305 18.16503,123.52756 1.22218,162.73819 -5.28407,12.22887 -9.37364,18.40763 -18.52701,27.99167 -13.61832,14.25906 -27.9066,22.32796 -46.22025,26.10156 -9.37396,1.93154 -30.66443,1.96665 -39.29216,0.0648 z M 6e-5,-625.5 l 0,-18.5 18.21063,0 18.21063,0 -7.41807,6.75 c -9.08059,8.26279 -18.43282,18.00601 -23.99677,25 C 2.70937,-609.3625 0.64321,-607 0.41499,-607 0.18678,-607 6e-5,-615.325 6e-5,-625.5 z" />
    <path
       inkscape:connector-curvature="0"
       style="fill:#06a94e;fill-opacity:1"
       id="path3020"
       d="m 312.00003,43.40367 c 49.10761,-26.3618 89.25364,-65.0589 107.47034,-103.59141 9.8845,-20.90798 13.00326,-35.10763 12.91732,-58.81226 -0.0568,-15.66199 -0.34314,-18.55029 -2.72649,-27.5 -4.83713,-18.16393 -12.95169,-32.56917 -26.0676,-46.27605 -17.10684,-17.87764 -37.81025,-29.4155 -64.96745,-36.20589 -22.85956,-5.7158 -59.47785,-8.57059 -141.12612,-11.00227 -85.77656,-2.55463 -101.42691,-3.56701 -117.35913,-7.59171 -16.89591,-4.26814 -27.10191,-12.06997 -30.18244,-23.07254 -2.4653,-8.80521 1.95653,-23.70857 11.23787,-37.87616 C 67.41197,-318.01256 87.7678,-339 90.75456,-339 c 1.11667,0 7.59122,1.31479 14.38789,2.92175 43.24868,10.22545 88.13427,10.0724 129.06365,-0.4401 26.24822,-6.74171 51.88052,-19.61152 71.50967,-35.90452 l 6.30631,-5.23449 12.73897,-2.17877 c 40.94183,-7.00234 60.37367,-8.5983 104.23898,-8.56123 37.98861,0.0321 52.52897,0.97931 84,5.47202 53.78049,7.67755 103.64086,22.89519 146.25,44.63627 l 14.75,7.5261 0,189.38148 0,189.38146 -185.25,-0.017 -185.25,-0.017 8.5,-4.5629 z" />
  </g>
</svg>
