<?xml version="1.0" encoding="UTF-8" standalone="no"?>
<!-- Created with Inkscape (http://www.inkscape.org/) -->

<svg
   xmlns:dc="http://purl.org/dc/elements/1.1/"
   xmlns:cc="http://creativecommons.org/ns#"
   xmlns:rdf="http://www.w3.org/1999/02/22-rdf-syntax-ns#"
   xmlns:svg="http://www.w3.org/2000/svg"
   xmlns="http://www.w3.org/2000/svg"
   xmlns:sodipodi="http://sodipodi.sourceforge.net/DTD/sodipodi-0.dtd"
   xmlns:inkscape="http://www.inkscape.org/namespaces/inkscape"
   width="48"
   height="48"
   id="svg2"
   version="1.1"
   inkscape:version="0.48.4 r9939"
   sodipodi:docname="twitter.svg">
  <defs
     id="defs4" />
  <sodipodi:namedview
     id="base"
     pagecolor="#ffffff"
     bordercolor="#666666"
     borderopacity="1.0"
     inkscape:pageopacity="0.0"
     inkscape:pageshadow="2"
     inkscape:zoom="3.7200571"
     inkscape:cx="57.343192"
     inkscape:cy="50.181142"
     inkscape:document-units="px"
     inkscape:current-layer="layer1"
     showgrid="false"
     inkscape:window-width="1920"
     inkscape:window-height="1056"
     inkscape:window-x="0"
     inkscape:window-y="24"
     inkscape:window-maximized="1"
     fit-margin-top="0"
     fit-margin-left="0"
     fit-margin-right="0"
     fit-margin-bottom="0" />
  <metadata
     id="metadata7">
    <rdf:RDF>
      <cc:Work
         rdf:about="">
        <dc:format>image/svg+xml</dc:format>
        <dc:type
           rdf:resource="http://purl.org/dc/dcmitype/StillImage" />
      </cc:Work>
    </rdf:RDF>
  </metadata>
  <g
     inkscape:label="Layer 1"
     inkscape:groupmode="layer"
     id="layer1"
     transform="translate(-282.32053,-487.68573)">
    <path
       style="fill:#2aa9e0"
       inkscape:connector-curvature="0"
       id="path5"
       d="m 328.32052,498.03966 c -1.61876,0.71808 -3.35875,1.20318 -5.18453,1.42142 1.86362,-1.11716 3.29517,-2.88619 3.96903,-4.99423 -1.74439,1.03466 -3.67621,1.78574 -5.73255,2.19055 -1.64649,-1.75451 -3.99257,-2.85055 -6.58901,-2.85055 -4.98521,0 -9.02728,4.04163 -9.02728,9.02684 0,0.70752 0.0799,1.39656 0.23386,2.05722 -7.50245,-0.37642 -14.15394,-3.97035 -18.60631,-9.43186 -0.77704,1.33321 -1.22232,2.88377 -1.22232,4.53817 0,3.13193 1.59368,5.89491 4.01588,7.51367 -1.47972,-0.0469 -2.87166,-0.45298 -4.0887,-1.12904 -0.001,0.0376 -0.001,0.0755 -0.001,0.11352 0,4.37361 3.11169,8.02187 7.24132,8.85172 -0.75748,0.20636 -1.55498,0.31658 -2.37822,0.31658 -0.58168,0 -1.14708,-0.0568 -1.6984,-0.16192 1.14884,3.58622 4.48251,6.19609 8.43284,6.26869 -3.08946,2.42132 -6.98172,3.86452 -11.21123,3.86452 -0.72863,0 -1.44716,-0.0429 -2.15336,-0.12628 3.99499,2.56147 8.73995,4.05593 13.8378,4.05593 16.60409,0 25.68417,-13.75508 25.68417,-25.68438 0,-0.39138 -0.009,-0.78056 -0.0262,-1.16798 1.76353,-1.27249 3.29384,-2.86221 4.50406,-4.67259 z" />
  </g>
</svg>
